<svg xmlns="http://www.w3.org/2000/svg" viewBox="0 0 800 500" role="img" aria-labelledby="title desc">
  <title id="title">Learning ecologies project placeholder</title>
  <desc id="desc">Abstract diagram connecting different study contexts with dotted pathways.</desc>
  <rect width="800" height="500" rx="36" fill="#edf0ea"/>
  <circle cx="160" cy="140" r="86" fill="#ffffff"/>
  <circle cx="402" cy="90" r="70" fill="#d7ece7"/>
  <circle cx="628" cy="172" r="96" fill="#dceaf2"/>
  <circle cx="264" cy="352" r="94" fill="#f3e7d9"/>
  <circle cx="586" cy="358" r="88" fill="#ffffff"/>
  <path d="M196 172C252 178 296 142 344 116" fill="none" stroke="#174f78" stroke-width="6" stroke-dasharray="10 10" stroke-linecap="round"/>
  <path d="M458 110C512 108 554 128 598 160" fill="none" stroke="#174f78" stroke-width="6" stroke-dasharray="10 10" stroke-linecap="round"/>
  <path d="M220 330C286 304 350 300 498 344" fill="none" stroke="#216a68" stroke-width="6" stroke-dasharray="10 10" stroke-linecap="round"/>
  <path d="M622 258C640 288 638 310 620 336" fill="none" stroke="#174f78" stroke-width="6" stroke-dasharray="10 10" stroke-linecap="round"/>
  <rect x="108" y="112" width="104" height="68" rx="18" fill="#174f78"/>
  <rect x="116" y="124" width="88" height="10" rx="5" fill="#ffffff" opacity="0.78"/>
  <rect x="116" y="144" width="60" height="10" rx="5" fill="#ffffff" opacity="0.55"/>
  <rect x="362" y="58" width="78" height="62" rx="18" fill="#216a68"/>
  <rect x="566" y="136" width="124" height="78" rx="20" fill="#ffffff" stroke="#b9cad5" stroke-width="4"/>
  <rect x="216" y="322" width="96" height="64" rx="18" fill="#ffffff" stroke="#d6c7b7" stroke-width="4"/>
  <rect x="536" y="330" width="108" height="70" rx="18" fill="#174f78" opacity="0.15"/>
</svg>
